<svg xmlns="http://www.w3.org/2000/svg" xmlns:xlink="http://www.w3.org/1999/xlink" width="500" zoomAndPan="magnify" viewBox="0 0 375 374.999991" height="500" preserveAspectRatio="xMidYMid meet" version="1.0"><defs><clipPath id="407e0b72c4"><path d="M 36.007812 36.007812 L 339 36.007812 L 339 339 L 36.007812 339 Z M 36.007812 36.007812 " clip-rule="nonzero"/></clipPath><clipPath id="ee340c2e21"><path d="M 62.300781 66.699219 L 312.800781 66.699219 L 312.800781 293.199219 L 62.300781 293.199219 Z M 62.300781 66.699219 " clip-rule="nonzero"/></clipPath></defs><rect x="-37.5" width="450" fill="#ffffff" y="-37.499999" height="449.999989" fill-opacity="1"/><rect x="-37.5" width="450" fill="#ffffff" y="-37.499999" height="449.999989" fill-opacity="1"/><rect x="-37.5" width="450" fill="#1100ff" y="-37.499999" height="449.999989" fill-opacity="1"/><g clip-path="url(#407e0b72c4)"><path fill="#6d80be" d="M 338.9375 187.457031 C 338.9375 189.933594 338.875 192.410156 338.753906 194.886719 C 338.632812 197.363281 338.449219 199.835938 338.207031 202.304688 C 337.964844 204.769531 337.660156 207.230469 337.296875 209.683594 C 336.933594 212.132812 336.507812 214.574219 336.023438 217.007812 C 335.542969 219.4375 335 221.855469 334.394531 224.261719 C 333.792969 226.667969 333.132812 229.054688 332.414062 231.425781 C 331.695312 233.800781 330.917969 236.152344 330.082031 238.488281 C 329.246094 240.820312 328.355469 243.132812 327.40625 245.425781 C 326.457031 247.714844 325.453125 249.980469 324.390625 252.222656 C 323.332031 254.460938 322.21875 256.675781 321.050781 258.863281 C 319.878906 261.050781 318.660156 263.207031 317.382812 265.332031 C 316.109375 267.457031 314.785156 269.550781 313.40625 271.613281 C 312.03125 273.675781 310.601562 275.699219 309.125 277.691406 C 307.648438 279.683594 306.125 281.636719 304.550781 283.554688 C 302.980469 285.46875 301.359375 287.347656 299.695312 289.183594 C 298.03125 291.019531 296.320312 292.816406 294.566406 294.566406 C 292.816406 296.320312 291.019531 298.03125 289.183594 299.695312 C 287.347656 301.359375 285.46875 302.980469 283.554688 304.550781 C 281.636719 306.125 279.683594 307.648438 277.691406 309.125 C 275.699219 310.601562 273.675781 312.03125 271.613281 313.40625 C 269.550781 314.785156 267.457031 316.109375 265.332031 317.382812 C 263.207031 318.660156 261.050781 319.878906 258.863281 321.050781 C 256.675781 322.21875 254.460938 323.332031 252.222656 324.390625 C 249.980469 325.453125 247.714844 326.457031 245.425781 327.40625 C 243.132812 328.355469 240.820312 329.246094 238.488281 330.082031 C 236.152344 330.917969 233.800781 331.695312 231.425781 332.414062 C 229.054688 333.132812 226.667969 333.792969 224.261719 334.394531 C 221.855469 335 219.4375 335.542969 217.007812 336.023438 C 214.574219 336.507812 212.132812 336.933594 209.683594 337.296875 C 207.230469 337.660156 204.769531 337.964844 202.304688 338.207031 C 199.835938 338.449219 197.363281 338.632812 194.886719 338.753906 C 192.410156 338.875 189.933594 338.9375 187.457031 338.9375 C 184.976562 338.9375 182.5 338.875 180.023438 338.753906 C 177.546875 338.632812 175.074219 338.449219 172.605469 338.207031 C 170.140625 337.964844 167.679688 337.660156 165.226562 337.296875 C 162.777344 336.933594 160.335938 336.507812 157.902344 336.023438 C 155.472656 335.542969 153.054688 335 150.648438 334.394531 C 148.242188 333.792969 145.855469 333.132812 143.484375 332.414062 C 141.109375 331.695312 138.757812 330.917969 136.421875 330.082031 C 134.089844 329.246094 131.777344 328.355469 129.484375 327.40625 C 127.195312 326.457031 124.929688 325.453125 122.6875 324.390625 C 120.449219 323.332031 118.234375 322.21875 116.046875 321.050781 C 113.859375 319.878906 111.703125 318.660156 109.578125 317.382812 C 107.453125 316.109375 105.359375 314.785156 103.296875 313.40625 C 101.234375 312.03125 99.210938 310.601562 97.21875 309.125 C 95.226562 307.648438 93.273438 306.125 91.355469 304.550781 C 89.441406 302.980469 87.5625 301.359375 85.726562 299.695312 C 83.890625 298.03125 82.09375 296.320312 80.34375 294.566406 C 78.589844 292.816406 76.878906 291.019531 75.214844 289.183594 C 73.550781 287.347656 71.929688 285.46875 70.359375 283.554688 C 68.785156 281.636719 67.261719 279.683594 65.785156 277.691406 C 64.308594 275.699219 62.878906 273.675781 61.503906 271.613281 C 60.125 269.550781 58.800781 267.457031 57.527344 265.332031 C 56.25 263.207031 55.03125 261.050781 53.859375 258.863281 C 52.691406 256.675781 51.578125 254.460938 50.519531 252.222656 C 49.457031 249.980469 48.453125 247.714844 47.503906 245.425781 C 46.554688 243.132812 45.664062 240.820312 44.828125 238.488281 C 43.992188 236.152344 43.214844 233.800781 42.496094 231.425781 C 41.777344 229.054688 41.117188 226.667969 40.515625 224.261719 C 39.910156 221.855469 39.367188 219.4375 38.886719 217.007812 C 38.402344 214.574219 37.976562 212.132812 37.613281 209.683594 C 37.25 207.230469 36.945312 204.769531 36.703125 202.304688 C 36.460938 199.835938 36.277344 197.363281 36.15625 194.886719 C 36.035156 192.410156 35.972656 189.933594 35.972656 187.457031 C 35.972656 184.976562 36.035156 182.5 36.15625 180.023438 C 36.277344 177.546875 36.460938 175.074219 36.703125 172.605469 C 36.945312 170.140625 37.25 167.679688 37.613281 165.226562 C 37.976562 162.777344 38.402344 160.335938 38.886719 157.902344 C 39.367188 155.472656 39.910156 153.054688 40.515625 150.648438 C 41.117188 148.242188 41.777344 145.855469 42.496094 143.484375 C 43.214844 141.109375 43.992188 138.757812 44.828125 136.421875 C 45.664062 134.089844 46.554688 131.777344 47.503906 129.484375 C 48.453125 127.195312 49.457031 124.929688 50.519531 122.6875 C 51.578125 120.449219 52.691406 118.234375 53.859375 116.046875 C 55.03125 113.859375 56.25 111.703125 57.527344 109.578125 C 58.800781 107.453125 60.125 105.359375 61.503906 103.296875 C 62.878906 101.234375 64.308594 99.210938 65.785156 97.21875 C 67.261719 95.226562 68.785156 93.273438 70.359375 91.355469 C 71.929688 89.441406 73.550781 87.5625 75.214844 85.726562 C 76.878906 83.890625 78.589844 82.09375 80.34375 80.34375 C 82.09375 78.589844 83.890625 76.878906 85.726562 75.214844 C 87.5625 73.550781 89.441406 71.929688 91.355469 70.359375 C 93.273438 68.785156 95.226562 67.261719 97.21875 65.785156 C 99.210938 64.308594 101.234375 62.878906 103.296875 61.503906 C 105.359375 60.125 107.453125 58.800781 109.578125 57.527344 C 111.703125 56.25 113.859375 55.03125 116.046875 53.859375 C 118.234375 52.691406 120.449219 51.578125 122.6875 50.519531 C 124.929688 49.457031 127.195312 48.453125 129.484375 47.503906 C 131.777344 46.554688 134.089844 45.664062 136.421875 44.828125 C 138.757812 43.992188 141.109375 43.214844 143.484375 42.496094 C 145.855469 41.777344 148.242188 41.117188 150.648438 40.515625 C 153.054688 39.910156 155.472656 39.367188 157.902344 38.886719 C 160.335938 38.402344 162.777344 37.976562 165.226562 37.613281 C 167.679688 37.25 170.140625 36.945312 172.605469 36.703125 C 175.074219 36.460938 177.546875 36.277344 180.023438 36.15625 C 182.5 36.035156 184.976562 35.972656 187.457031 35.972656 C 189.933594 35.972656 192.410156 36.035156 194.886719 36.15625 C 197.363281 36.277344 199.835938 36.460938 202.304688 36.703125 C 204.769531 36.945312 207.230469 37.25 209.683594 37.613281 C 212.132812 37.976562 214.574219 38.402344 217.007812 38.886719 C 219.4375 39.367188 221.855469 39.910156 224.261719 40.515625 C 226.667969 41.117188 229.054688 41.777344 231.425781 42.496094 C 233.800781 43.214844 236.152344 43.992188 238.488281 44.828125 C 240.820312 45.664062 243.132812 46.554688 245.425781 47.503906 C 247.714844 48.453125 249.980469 49.457031 252.222656 50.519531 C 254.460938 51.578125 256.675781 52.691406 258.863281 53.859375 C 261.050781 55.03125 263.207031 56.25 265.332031 57.527344 C 267.457031 58.800781 269.550781 60.125 271.613281 61.503906 C 273.675781 62.878906 275.699219 64.308594 277.691406 65.785156 C 279.683594 67.261719 281.636719 68.785156 283.554688 70.359375 C 285.46875 71.929688 287.347656 73.550781 289.183594 75.214844 C 291.019531 76.878906 292.816406 78.589844 294.566406 80.34375 C 296.320312 82.09375 298.03125 83.890625 299.695312 85.726562 C 301.359375 87.5625 302.980469 89.441406 304.550781 91.355469 C 306.125 93.273438 307.648438 95.226562 309.125 97.21875 C 310.601562 99.210938 312.03125 101.234375 313.40625 103.296875 C 314.785156 105.359375 316.109375 107.453125 317.382812 109.578125 C 318.660156 111.703125 319.878906 113.859375 321.050781 116.046875 C 322.21875 118.234375 323.332031 120.449219 324.390625 122.6875 C 325.453125 124.929688 326.457031 127.195312 327.40625 129.484375 C 328.355469 131.777344 329.246094 134.089844 330.082031 136.421875 C 330.917969 138.757812 331.695312 141.109375 332.414062 143.484375 C 333.132812 145.855469 333.792969 148.242188 334.394531 150.648438 C 335 153.054688 335.542969 155.472656 336.023438 157.902344 C 336.507812 160.335938 336.933594 162.777344 337.296875 165.226562 C 337.660156 167.679688 337.964844 170.140625 338.207031 172.605469 C 338.449219 175.074219 338.632812 177.546875 338.753906 180.023438 C 338.875 182.5 338.9375 184.976562 338.9375 187.457031 Z M 338.9375 187.457031 " fill-opacity="1" fill-rule="nonzero"/></g><path fill="#6d80be" d="M 191.296875 144.273438 L 191.296875 174.242188 L 183.613281 174.242188 L 183.613281 144.277344 C 175.332031 142.507812 169.117188 135.160156 169.117188 126.351562 C 169.117188 116.226562 177.328125 108.015625 187.453125 108.015625 C 197.578125 108.015625 205.789062 116.226562 205.789062 126.351562 C 205.789062 135.15625 199.574219 142.507812 191.296875 144.273438 Z M 191.296875 144.273438 " fill-opacity="1" fill-rule="nonzero"/><path fill="#6d80be" d="M 255.953125 245.25 C 259.378906 224.921875 259.304688 203.902344 249.265625 184.769531 C 238.730469 163.992188 215.832031 145.554688 187.457031 146.050781 C 159.078125 145.554688 136.175781 163.992188 125.644531 184.769531 C 115.605469 203.902344 115.527344 224.921875 118.957031 245.25 Z M 255.953125 245.25 " fill-opacity="1" fill-rule="nonzero"/><path fill="#6d80be" d="M 234.984375 192.265625 L 234.878906 192.0625 C 227.890625 178.273438 211.566406 162.171875 188.578125 162.171875 C 188.480469 162.171875 188.324219 162.171875 188.15625 162.175781 L 188.15625 229.121094 L 241.652344 229.121094 C 242.589844 214.511719 240.402344 202.589844 234.984375 192.265625 Z M 234.984375 192.265625 " fill-opacity="1" fill-rule="nonzero"/><path fill="#6d80be" d="M 280.785156 253.054688 C 280.785156 259.023438 275.945312 263.867188 269.972656 263.867188 L 104.9375 263.867188 C 98.96875 263.867188 94.125 259.023438 94.125 253.054688 C 94.125 247.082031 98.96875 242.242188 104.9375 242.242188 L 269.972656 242.242188 C 275.945312 242.242188 280.785156 247.082031 280.785156 253.054688 Z M 280.785156 253.054688 " fill-opacity="1" fill-rule="nonzero"/><path fill="#6d80be" d="M 280.785156 274.675781 C 280.785156 280.648438 275.945312 285.488281 269.972656 285.488281 L 104.9375 285.488281 C 98.96875 285.488281 94.125 280.648438 94.125 274.675781 C 94.125 268.703125 98.96875 263.867188 104.9375 263.867188 L 269.972656 263.867188 C 275.945312 263.867188 280.785156 268.703125 280.785156 274.675781 Z M 280.785156 274.675781 " fill-opacity="1" fill-rule="nonzero"/><path fill="#6d80be" d="M 242.074219 82.738281 C 239.453125 80.117188 235.199219 80.117188 232.578125 82.738281 L 213.738281 101.472656 C 211.117188 104.09375 211.117188 108.34375 213.738281 110.96875 C 216.359375 113.589844 220.613281 113.589844 223.234375 110.964844 L 242.074219 92.230469 C 244.695312 89.609375 244.695312 85.359375 242.074219 82.738281 Z M 242.074219 82.738281 " fill-opacity="1" fill-rule="nonzero"/><path fill="#6d80be" d="M 132.835938 82.738281 C 135.457031 80.117188 139.710938 80.117188 142.332031 82.738281 L 161.171875 101.472656 C 163.792969 104.09375 163.792969 108.34375 161.171875 110.96875 C 158.546875 113.589844 154.296875 113.589844 151.675781 110.964844 L 132.835938 92.230469 C 130.214844 89.609375 130.214844 85.359375 132.835938 82.738281 Z M 132.835938 82.738281 " fill-opacity="1" fill-rule="nonzero"/><path fill="#6d80be" d="M 194.09375 91.074219 C 194.09375 94.742188 191.121094 97.714844 187.457031 97.714844 C 183.789062 97.714844 180.816406 94.742188 180.816406 91.074219 L 180.816406 65.410156 C 180.816406 61.742188 183.789062 58.769531 187.457031 58.769531 C 191.121094 58.769531 194.09375 61.742188 194.09375 65.410156 Z M 194.09375 91.074219 " fill-opacity="1" fill-rule="nonzero"/><path fill="#fbe2ae" d="M 101.644531 179.511719 L 109.359375 179.511719 L 109.359375 192.039062 L 101.644531 192.039062 Z M 101.644531 179.511719 " fill-opacity="1" fill-rule="nonzero"/><path fill="#fbe2ae" d="M 149.835938 179.511719 L 157.171875 179.511719 L 157.171875 192.039062 L 149.835938 192.039062 Z M 149.835938 179.511719 " fill-opacity="1" fill-rule="nonzero"/><path fill="#fbe2ae" d="M 105.34375 247.152344 L 105.34375 251.359375 C 105.34375 254.140625 103.074219 256.382812 100.3125 256.382812 L 97.707031 256.382812 C 94.945312 256.382812 92.679688 254.140625 92.679688 251.359375 L 92.679688 247.152344 Z M 105.34375 247.152344 " fill-opacity="1" fill-rule="nonzero"/><path fill="#fbe2ae" d="M 166.335938 247.152344 L 166.335938 251.359375 C 166.335938 254.140625 164.089844 256.382812 161.308594 256.382812 L 158.722656 256.382812 C 155.941406 256.382812 153.691406 254.140625 153.691406 251.359375 L 153.691406 247.152344 Z M 166.335938 247.152344 " fill-opacity="1" fill-rule="nonzero"/><path fill="#fbe2ae" d="M 85.203125 222.097656 L 173.851562 222.097656 L 173.851562 229.144531 L 85.203125 229.144531 Z M 85.203125 222.097656 " fill-opacity="1" fill-rule="nonzero"/><path fill="#ea728c" d="M 173.851562 236.847656 L 173.851562 239.6875 C 173.851562 243.796875 170.492188 247.132812 166.335938 247.152344 L 92.679688 247.152344 C 88.542969 247.113281 85.203125 243.777344 85.203125 239.6875 L 85.203125 229.144531 L 173.851562 229.144531 Z M 173.851562 236.847656 " fill-opacity="1" fill-rule="nonzero"/><path fill="#ea728c" d="M 173.851562 213.28125 L 173.851562 222.097656 L 85.203125 222.097656 L 85.203125 213.28125 C 85.203125 209.152344 88.582031 205.816406 92.738281 205.816406 L 166.316406 205.816406 C 170.472656 205.816406 173.851562 209.152344 173.851562 213.28125 Z M 173.851562 213.28125 " fill-opacity="1" fill-rule="nonzero"/><path fill="#2f84b9" d="M 187.472656 249.890625 L 187.472656 256.382812 L 179.519531 256.382812 L 179.519531 247.589844 C 181.625 249.058594 184.191406 249.890625 186.933594 249.890625 Z M 187.472656 249.890625 " fill-opacity="1" fill-rule="nonzero"/><path fill="#2f84b9" d="M 203.375 248.5625 L 203.375 256.382812 L 195.421875 256.382812 L 195.421875 249.890625 L 197.609375 249.890625 C 199.675781 249.890625 201.644531 249.414062 203.375 248.542969 Z M 203.375 248.5625 " fill-opacity="1" fill-rule="nonzero"/><path fill="#52a7d7" d="M 197.492188 187.414062 L 197.472656 249.890625 L 189.539062 249.890625 L 189.539062 187.414062 Z M 197.492188 187.414062 " fill-opacity="1" fill-rule="nonzero"/><path fill="#52a7d7" d="M 204.210938 176.375 L 204.210938 189.21875 C 202.28125 188.070312 199.996094 187.414062 197.589844 187.414062 L 197.492188 187.414062 L 197.492188 176.375 C 197.492188 175.027344 199 173.933594 200.851562 173.933594 C 202.71875 173.933594 204.210938 175.027344 204.210938 176.375 Z M 204.210938 176.375 " fill-opacity="1" fill-rule="nonzero"/><path fill="#86cbcf" d="M 204.210938 189.21875 C 208.066406 191.484375 210.652344 195.671875 210.652344 200.457031 L 210.652344 236.847656 C 210.652344 241.988281 207.691406 246.417969 203.375 248.542969 C 201.644531 249.414062 199.675781 249.890625 197.609375 249.890625 L 197.472656 249.890625 L 197.492188 187.414062 L 197.589844 187.414062 C 199.996094 187.414062 202.28125 188.070312 204.210938 189.21875 Z M 204.210938 189.21875 " fill-opacity="1" fill-rule="nonzero"/><path fill="#a9dde0" d="M 189.539062 249.832031 L 189.539062 249.890625 L 186.933594 249.890625 C 184.191406 249.890625 181.625 249.058594 179.519531 247.589844 C 176.097656 245.246094 173.851562 241.316406 173.851562 236.847656 L 173.851562 200.457031 C 173.851562 193.25 179.71875 187.414062 186.933594 187.414062 L 189.539062 187.414062 Z M 189.539062 249.832031 " fill-opacity="1" fill-rule="nonzero"/><path fill="#216849" d="M 173.851562 179.53125 L 173.851562 185.785156 L 157.171875 185.785156 L 157.171875 179.511719 L 149.835938 179.511719 L 149.835938 185.785156 L 109.359375 185.785156 L 109.359375 179.511719 L 101.644531 179.511719 L 101.644531 185.785156 L 85.203125 185.785156 L 85.203125 179.53125 C 85.203125 175.382812 88.703125 172.007812 93.035156 172.007812 L 166.019531 172.007812 C 170.351562 172.007812 173.851562 175.382812 173.851562 179.53125 Z M 173.851562 179.53125 " fill-opacity="1" fill-rule="nonzero"/><path fill="#349370" d="M 173.851562 200.457031 L 173.851562 213.28125 C 173.851562 209.152344 170.472656 205.816406 166.316406 205.816406 L 92.738281 205.816406 C 88.582031 205.816406 85.203125 209.152344 85.203125 213.28125 L 85.203125 185.785156 L 101.644531 185.785156 L 101.644531 192.039062 L 109.359375 192.039062 L 109.359375 185.785156 L 149.835938 185.785156 L 149.835938 192.039062 L 157.171875 192.039062 L 157.171875 185.785156 L 173.851562 185.785156 Z M 173.851562 200.457031 " fill-opacity="1" fill-rule="nonzero"/><path fill="#655f68" d="M 85.203125 274.90625 C 87.769531 274.90625 89.855469 276.992188 89.855469 279.550781 C 89.855469 282.113281 87.769531 284.179688 85.203125 284.179688 C 82.636719 284.179688 80.550781 282.113281 80.550781 279.550781 C 80.550781 276.992188 82.636719 274.90625 85.203125 274.90625 Z M 85.203125 274.90625 " fill-opacity="1" fill-rule="nonzero"/><path fill="#655f68" d="M 210.671875 274.90625 C 213.238281 274.90625 215.304688 276.992188 215.304688 279.550781 C 215.304688 282.113281 213.238281 284.179688 210.671875 284.179688 C 208.085938 284.179688 206.019531 282.113281 206.019531 279.550781 C 206.019531 276.992188 208.085938 274.90625 210.671875 274.90625 Z M 210.671875 274.90625 " fill-opacity="1" fill-rule="nonzero"/><path fill="#d2d2d1" d="M 85.203125 267.957031 C 91.605469 267.957031 96.8125 273.160156 96.8125 279.550781 C 96.8125 285.945312 91.605469 291.125 85.203125 291.125 C 78.78125 291.125 73.574219 285.945312 73.574219 279.550781 C 73.574219 273.160156 78.78125 267.957031 85.203125 267.957031 Z M 89.855469 279.550781 C 89.855469 276.992188 87.769531 274.90625 85.203125 274.90625 C 82.636719 274.90625 80.550781 276.992188 80.550781 279.550781 C 80.550781 282.113281 82.636719 284.179688 85.203125 284.179688 C 87.769531 284.179688 89.855469 282.113281 89.855469 279.550781 Z M 89.855469 279.550781 " fill-opacity="1" fill-rule="nonzero"/><path fill="#d2d2d1" d="M 210.671875 267.957031 C 217.074219 267.957031 222.28125 273.160156 222.28125 279.550781 C 222.28125 285.945312 217.074219 291.125 210.671875 291.125 C 204.25 291.125 199.042969 285.945312 199.042969 279.550781 C 199.042969 273.160156 204.25 267.957031 210.671875 267.957031 Z M 215.304688 279.550781 C 215.304688 276.992188 213.238281 274.90625 210.671875 274.90625 C 208.085938 274.90625 206.019531 276.992188 206.019531 279.550781 C 206.019531 282.113281 208.085938 284.179688 210.671875 284.179688 C 213.238281 284.179688 215.304688 282.113281 215.304688 279.550781 Z M 215.304688 279.550781 " fill-opacity="1" fill-rule="nonzero"/><path fill="#9c9d9c" d="M 64.289062 256.382812 L 231.566406 256.382812 L 231.566406 267.957031 L 64.289062 267.957031 Z M 64.289062 256.382812 " fill-opacity="1" fill-rule="nonzero"/><path fill="#ffc05a" d="M 222.28125 179.949219 L 222.28125 256.382812 L 210.652344 256.382812 L 210.652344 174.09375 L 211.03125 174.09375 C 211.03125 177.328125 213.652344 179.949219 216.894531 179.949219 Z M 222.28125 179.949219 " fill-opacity="1" fill-rule="nonzero"/><path fill="#ffc05a" d="M 222.28125 143.023438 L 222.28125 168.253906 L 216.894531 168.253906 C 215.265625 168.253906 213.8125 168.910156 212.738281 169.964844 C 211.6875 171.015625 211.03125 172.484375 211.03125 174.09375 L 210.652344 174.09375 L 210.652344 142.882812 C 210.652344 125.632812 203.632812 109.988281 192.28125 98.671875 C 180.929688 87.355469 165.242188 80.347656 147.925781 80.347656 C 113.273438 80.347656 85.203125 108.359375 85.203125 142.882812 L 85.203125 256.382812 L 73.574219 256.382812 L 73.574219 143.023438 C 73.574219 102.007812 106.875 68.773438 147.925781 68.773438 C 168.464844 68.773438 187.054688 77.070312 200.511719 90.511719 C 213.953125 103.953125 222.28125 122.515625 222.28125 143.023438 Z M 222.28125 143.023438 " fill-opacity="1" fill-rule="nonzero"/><path fill="#ffd7d2" d="M 222.757812 168.253906 L 222.757812 179.949219 L 216.894531 179.949219 C 213.652344 179.949219 211.03125 177.328125 211.03125 174.09375 C 211.03125 172.484375 211.6875 171.015625 212.738281 169.964844 C 213.8125 168.910156 215.265625 168.253906 216.894531 168.253906 Z M 222.757812 168.253906 " fill-opacity="1" fill-rule="nonzero"/><path fill="#ffc05a" d="M 230.59375 167.519531 L 230.59375 179.59375 C 227.609375 179.929688 224.964844 180.007812 222.757812 179.949219 L 222.757812 168.253906 C 224.46875 168.234375 227.234375 168.117188 230.59375 167.480469 Z M 230.59375 167.519531 " fill-opacity="1" fill-rule="nonzero"/><path fill="#604533" d="M 309.222656 250.6875 C 311.449219 253.066406 311.328125 256.820312 308.921875 259.0625 L 295.902344 271.113281 C 294.667969 272.265625 292.71875 272.542969 291.367188 271.550781 C 289.957031 270.519531 289.578125 268.652344 290.394531 267.183594 C 291.230469 265.65625 291.605469 262.082031 295.144531 258.507812 C 297.09375 257.734375 299.578125 256.523438 302.203125 254.617188 C 304.730469 252.789062 306.597656 250.882812 307.929688 249.316406 Z M 309.222656 250.6875 " fill-opacity="1" fill-rule="nonzero"/><path fill="#5d5560" d="M 291.964844 232.164062 L 307.929688 249.316406 C 306.597656 250.882812 304.730469 252.789062 302.203125 254.617188 C 299.578125 256.523438 297.09375 257.734375 295.144531 258.507812 C 286.714844 249.453125 278.265625 240.402344 269.835938 231.347656 C 268.605469 230.019531 267.3125 228.53125 265.980469 226.863281 C 266.515625 225.550781 267.113281 224.203125 267.769531 222.851562 C 269.640625 219.019531 271.6875 215.785156 273.632812 213.105469 C 275.484375 210.523438 277.847656 206.613281 279.5 201.410156 C 279.699219 200.796875 279.878906 200.199219 280.015625 199.605469 L 280.035156 199.605469 C 280.273438 200.753906 280.453125 201.828125 280.574219 202.761719 C 280.972656 206.054688 281.6875 209.808594 282.9375 213.898438 C 285.363281 221.800781 288.941406 227.914062 291.945312 232.164062 C 291.964844 232.164062 291.964844 232.164062 291.964844 232.164062 Z M 291.964844 232.164062 " fill-opacity="1" fill-rule="nonzero"/><path fill="#ae2c36" d="M 281.46875 157.851562 L 281.46875 189.695312 L 272.679688 187.613281 C 269.539062 186.878906 266.257812 187.097656 263.257812 188.207031 L 254.070312 191.644531 L 254.070312 170.71875 C 262.5 164.859375 267.808594 157.457031 270.851562 152.214844 C 272.480469 149.394531 271.1875 145.820312 268.1875 144.609375 C 267.53125 144.351562 266.855469 144.234375 266.179688 144.234375 C 264.410156 144.234375 262.679688 145.105469 261.6875 146.675781 C 259.976562 149.375 257.511719 152.632812 254.070312 155.808594 L 254.070312 154.835938 C 254.070312 149.496094 254.726562 144.175781 256.019531 138.992188 L 269.71875 135.0625 C 269.71875 135.082031 269.738281 135.101562 269.757812 135.101562 C 271.546875 136.570312 273.59375 138.476562 275.601562 140.9375 C 275.621094 140.976562 275.644531 141.015625 275.683594 141.039062 C 279.519531 145.78125 281.46875 151.757812 281.46875 157.851562 Z M 281.46875 157.851562 " fill-opacity="1" fill-rule="nonzero"/><path fill="#655f68" d="M 272.679688 187.613281 L 281.46875 189.695312 C 281.410156 192.277344 281.070312 195.691406 280.015625 199.605469 C 279.878906 200.199219 279.699219 200.796875 279.5 201.410156 C 277.847656 206.613281 275.484375 210.523438 273.632812 213.105469 C 271.6875 215.785156 269.636719 219.019531 267.769531 222.851562 C 267.113281 224.203125 266.515625 225.550781 265.980469 226.863281 C 263.613281 232.757812 262.480469 238.160156 261.90625 242.367188 L 261.90625 265.773438 C 259.855469 266.011719 257.171875 266.152344 254.070312 265.773438 C 250.851562 265.378906 248.207031 264.582031 246.238281 263.828125 C 246.238281 251.460938 246.238281 239.113281 246.238281 226.761719 C 246.277344 221.9375 246.734375 215.941406 248.207031 209.210938 C 249.757812 202.105469 251.984375 196.1875 254.070312 191.644531 L 263.257812 188.207031 C 266.257812 187.097656 269.539062 186.878906 272.679688 187.613281 Z M 272.679688 187.613281 " fill-opacity="1" fill-rule="nonzero"/><path fill="#604533" d="M 275.601562 103.871094 C 276.21875 106.949219 277.195312 114.078125 273.632812 121.441406 C 272.460938 123.863281 271.050781 125.789062 269.738281 127.257812 L 267.652344 127.855469 L 266.140625 120.507812 C 269.003906 118.78125 269.617188 114.96875 267.769531 112.667969 C 265.980469 110.425781 262.324219 110.066406 259.9375 112.25 L 259.222656 104.746094 Z M 275.601562 103.871094 " fill-opacity="1" fill-rule="nonzero"/><path fill="#ffc05a" d="M 240.375 105.738281 L 238.425781 105.835938 L 238.425781 98.035156 L 275.601562 96.070312 L 275.601562 103.871094 L 259.222656 104.746094 Z M 240.375 105.738281 " fill-opacity="1" fill-rule="nonzero"/><path fill="#ae2c36" d="M 275.601562 80.464844 L 275.601562 96.070312 L 238.425781 98.035156 L 238.425781 82.429688 Z M 275.601562 80.464844 " fill-opacity="1" fill-rule="nonzero"/><path fill="#c84242" d="M 268.1875 144.609375 C 271.1875 145.820312 272.480469 149.394531 270.851562 152.214844 C 267.808594 157.457031 262.5 164.859375 254.070312 170.71875 C 251.1875 172.722656 247.949219 174.570312 244.289062 176.058594 C 239.359375 178.082031 234.6875 179.117188 230.59375 179.59375 L 230.59375 167.480469 C 235.5625 166.609375 241.863281 164.664062 248.207031 160.453125 C 250.414062 158.984375 252.363281 157.394531 254.070312 155.808594 C 257.511719 152.632812 259.976562 149.375 261.6875 146.675781 C 262.679688 145.105469 264.410156 144.234375 266.179688 144.234375 C 266.855469 144.234375 267.53125 144.351562 268.1875 144.609375 Z M 268.1875 144.609375 " fill-opacity="1" fill-rule="nonzero"/><path fill="#fec4b9" d="M 267.652344 127.855469 L 269.738281 127.257812 C 269.738281 127.277344 269.71875 127.300781 269.71875 127.320312 L 269.71875 135.0625 L 256.019531 138.992188 L 256.019531 131.191406 Z M 267.652344 127.855469 " fill-opacity="1" fill-rule="nonzero"/><path fill="#ffd7d2" d="M 267.769531 112.667969 C 269.617188 114.96875 269.003906 118.78125 266.140625 120.507812 L 267.652344 127.855469 L 256.019531 131.191406 L 250.195312 131.191406 C 246.796875 131.191406 243.914062 128.707031 243.394531 125.375 L 240.375 105.738281 L 259.222656 104.746094 L 259.9375 112.25 C 262.324219 110.066406 265.980469 110.425781 267.769531 112.667969 Z M 267.769531 112.667969 " fill-opacity="1" fill-rule="nonzero"/><path fill="#604533" d="M 261.90625 265.773438 L 261.90625 267.640625 C 261.90625 270.917969 259.242188 273.578125 255.960938 273.578125 L 238.1875 273.578125 C 236.496094 273.578125 234.886719 272.464844 234.570312 270.816406 C 234.449219 270.222656 234.507812 269.644531 234.667969 269.128906 C 235.007812 268.117188 235.78125 267.304688 236.835938 266.945312 C 238.503906 266.390625 241.207031 264.027344 246.238281 263.828125 C 248.207031 264.582031 250.851562 265.378906 254.070312 265.773438 C 257.171875 266.152344 259.855469 266.011719 261.90625 265.773438 Z M 261.90625 265.773438 " fill-opacity="1" fill-rule="nonzero"/><path fill="#3a322b" d="M 85.199219 286.164062 C 88.855469 286.164062 91.832031 283.195312 91.832031 279.546875 C 91.832031 275.898438 88.855469 272.925781 85.199219 272.925781 C 81.542969 272.925781 78.566406 275.898438 78.566406 279.546875 C 78.566406 283.195312 81.542969 286.164062 85.199219 286.164062 Z M 85.199219 276.898438 C 86.664062 276.898438 87.855469 278.085938 87.855469 279.546875 C 87.855469 281.003906 86.664062 282.191406 85.199219 282.191406 C 83.734375 282.191406 82.542969 281.003906 82.542969 279.546875 C 82.542969 278.085938 83.734375 276.898438 85.199219 276.898438 Z M 85.199219 276.898438 " fill-opacity="1" fill-rule="nonzero"/><path fill="#3a322b" d="M 210.660156 286.164062 C 214.320312 286.164062 217.296875 283.195312 217.296875 279.546875 C 217.296875 275.898438 214.320312 272.925781 210.660156 272.925781 C 207.003906 272.925781 204.027344 275.898438 204.027344 279.546875 C 204.027344 283.195312 207.003906 286.164062 210.660156 286.164062 Z M 210.660156 276.898438 C 212.128906 276.898438 213.320312 278.085938 213.320312 279.546875 C 213.320312 281.003906 212.128906 282.191406 210.660156 282.191406 C 209.195312 282.191406 208.003906 281.003906 208.003906 279.546875 C 208.003906 278.085938 209.195312 276.898438 210.660156 276.898438 Z M 210.660156 276.898438 " fill-opacity="1" fill-rule="nonzero"/><g clip-path="url(#ee340c2e21)"><path fill="#3a322b" d="M 310.675781 249.324219 L 293.503906 230.90625 C 289.675781 225.484375 286.761719 219.5625 284.835938 213.308594 C 283.757812 209.804688 282.988281 206.175781 282.546875 202.507812 C 282.433594 201.648438 282.269531 200.671875 282.066406 199.628906 C 282.894531 196.402344 283.371094 193.085938 283.453125 189.699219 L 283.453125 157.855469 C 283.453125 151.175781 281.242188 144.761719 277.136719 139.6875 C 275.5 137.683594 273.675781 135.820312 271.710938 134.15625 L 271.710938 128.023438 C 273.195312 126.261719 274.441406 124.339844 275.429688 122.300781 C 278.835938 115.257812 278.496094 108.347656 277.582031 103.714844 L 277.582031 80.476562 C 277.582031 79.929688 277.355469 79.410156 276.960938 79.035156 C 276.566406 78.660156 276.019531 78.46875 275.488281 78.492188 L 238.316406 80.441406 C 237.261719 80.496094 236.429688 81.367188 236.429688 82.425781 L 236.429688 105.832031 C 236.429688 106.375 236.65625 106.898438 237.050781 107.273438 C 237.421875 107.625 237.914062 107.816406 238.417969 107.816406 C 238.457031 107.816406 238.488281 107.816406 238.523438 107.816406 L 238.683594 107.808594 L 241.425781 125.667969 C 242.09375 130.015625 245.785156 133.171875 250.195312 133.171875 L 254.039062 133.171875 L 254.039062 138.75 C 252.742188 144.007812 252.082031 149.417969 252.082031 154.835938 L 252.082031 154.871094 C 250.511719 156.277344 248.875 157.613281 247.101562 158.792969 C 238.71875 164.363281 230.308594 165.933594 224.265625 166.203125 L 224.265625 143.015625 C 224.265625 100.984375 190.023438 66.785156 147.929688 66.785156 C 105.835938 66.785156 71.59375 100.984375 71.59375 143.015625 L 71.59375 254.398438 L 64.289062 254.398438 C 63.191406 254.398438 62.300781 255.285156 62.300781 256.382812 L 62.300781 267.964844 C 62.300781 269.0625 63.191406 269.949219 64.289062 269.949219 L 75.59375 269.949219 C 73.125 272.40625 71.59375 275.800781 71.59375 279.546875 C 71.59375 287.027344 77.699219 293.113281 85.199219 293.113281 C 92.699219 293.113281 98.804688 287.027344 98.804688 279.546875 C 98.804688 275.800781 97.273438 272.40625 94.804688 269.949219 L 201.054688 269.949219 C 198.585938 272.40625 197.054688 275.800781 197.054688 279.546875 C 197.054688 287.027344 203.160156 293.113281 210.660156 293.113281 C 218.160156 293.113281 224.265625 287.027344 224.265625 279.546875 C 224.265625 275.800781 222.734375 272.40625 220.265625 269.949219 L 231.570312 269.949219 C 231.941406 269.949219 232.269531 269.820312 232.570312 269.640625 C 232.515625 270.144531 232.511719 270.65625 232.609375 271.175781 C 233.085938 273.714844 235.429688 275.558594 238.191406 275.558594 L 255.949219 275.558594 C 260.324219 275.558594 263.886719 272.007812 263.886719 267.644531 L 263.886719 242.492188 C 264.441406 238.46875 265.414062 234.554688 266.710938 230.761719 C 267.269531 231.410156 267.800781 232.078125 268.378906 232.707031 L 292.464844 258.539062 C 290.515625 260.972656 289.707031 263.28125 289.152344 264.898438 C 288.96875 265.441406 288.789062 265.957031 288.648438 266.222656 C 287.359375 268.566406 288.019531 271.542969 290.183594 273.140625 C 291.097656 273.820312 292.1875 274.148438 293.292969 274.148438 C 294.695312 274.148438 296.128906 273.613281 297.257812 272.5625 L 310.265625 260.511719 C 311.816406 259.070312 312.714844 257.117188 312.792969 255.003906 C 312.871094 252.890625 312.121094 250.875 310.675781 249.324219 Z M 274.136719 142.292969 C 277.578125 146.550781 279.476562 152.078125 279.476562 157.855469 L 279.476562 187.191406 L 273.132812 185.6875 C 269.609375 184.851562 265.949219 185.082031 262.554688 186.355469 L 256.0625 188.785156 L 256.0625 171.730469 C 264.003906 165.980469 269.285156 158.890625 272.582031 153.199219 C 273.636719 151.378906 273.84375 149.191406 273.152344 147.199219 C 272.449219 145.179688 270.90625 143.566406 268.917969 142.773438 C 265.644531 141.46875 261.894531 142.660156 260.007812 145.613281 C 258.863281 147.40625 257.570312 149.0625 256.210938 150.652344 C 256.4375 147.257812 256.953125 143.886719 257.71875 140.570312 L 269.1875 137.273438 C 270.949219 138.773438 272.605469 140.417969 274.136719 142.292969 Z M 267.734375 129.902344 L 267.734375 133.558594 L 258.015625 136.351562 L 258.015625 132.683594 Z M 271.847656 120.570312 C 271.109375 122.097656 270.148438 123.523438 269.070312 124.890625 L 268.34375 121.328125 C 269.558594 120.226562 270.390625 118.742188 270.6875 117.097656 C 271.058594 115.046875 270.5625 112.976562 269.324219 111.421875 C 268.132812 109.921875 266.296875 108.972656 264.292969 108.816406 C 263.390625 108.742188 262.492188 108.835938 261.640625 109.082031 L 261.40625 106.613281 L 273.9375 105.953125 C 274.503906 109.90625 274.441406 115.21875 271.847656 120.570312 Z M 240.40625 103.738281 L 240.40625 99.914062 L 273.605469 98.171875 L 273.605469 102 Z M 273.605469 82.566406 L 273.605469 94.195312 L 240.410156 95.933594 L 240.410156 84.308594 Z M 250.199219 129.199219 C 247.765625 129.199219 245.726562 127.460938 245.355469 125.0625 L 242.675781 107.59375 L 257.429688 106.820312 L 257.960938 112.429688 C 258.035156 113.179688 258.523438 113.824219 259.230469 114.09375 C 259.9375 114.367188 260.730469 114.214844 261.285156 113.703125 C 262.023438 113.023438 262.980469 112.703125 263.984375 112.773438 C 264.890625 112.847656 265.703125 113.253906 266.210938 113.890625 C 266.734375 114.554688 266.941406 115.464844 266.777344 116.390625 C 266.59375 117.398438 265.992188 118.277344 265.117188 118.800781 C 264.398438 119.234375 264.027344 120.074219 264.199219 120.894531 L 265.332031 126.460938 L 255.746094 129.199219 Z M 249.304688 162.097656 C 251.398438 160.707031 253.320312 159.121094 255.152344 157.441406 C 255.332031 157.320312 255.488281 157.179688 255.621094 157.007812 C 258.542969 154.261719 261.160156 151.195312 263.355469 147.746094 C 264.214844 146.398438 265.929688 145.859375 267.441406 146.460938 C 268.355469 146.824219 269.066406 147.570312 269.390625 148.5 C 269.707031 149.417969 269.617188 150.382812 269.136719 151.214844 C 264.816406 158.683594 256.863281 168.734375 243.53125 174.214844 C 240.015625 175.660156 236.347656 176.640625 232.582031 177.253906 L 232.582031 169.128906 C 237.730469 168.027344 243.527344 165.9375 249.304688 162.097656 Z M 224.753906 170.167969 C 225.953125 170.109375 227.257812 169.976562 228.605469 169.800781 L 228.605469 177.757812 C 227.328125 177.867188 226.050781 177.964844 224.753906 177.976562 Z M 205.359375 254.398438 L 205.359375 249.703125 C 206.59375 248.957031 207.707031 248.046875 208.671875 246.992188 L 208.671875 254.398438 Z M 197.40625 254.398438 L 197.40625 251.878906 L 197.601562 251.878906 C 198.910156 251.878906 200.171875 251.691406 201.382812 251.375 L 201.382812 254.398438 Z M 189.453125 254.398438 L 189.453125 251.878906 L 193.429688 251.878906 L 193.429688 254.398438 Z M 181.503906 254.398438 L 181.503906 250.851562 C 182.757812 251.335938 184.085938 251.671875 185.480469 251.804688 L 185.480469 254.398438 Z M 167.605469 254.398438 C 168.050781 253.476562 168.324219 252.453125 168.324219 251.363281 L 168.324219 248.910156 C 170.785156 248.382812 172.890625 246.917969 174.246094 244.914062 C 175.136719 246.300781 176.242188 247.539062 177.527344 248.566406 L 177.527344 254.398438 Z M 208.671875 190.316406 C 207.929688 189.503906 207.105469 188.773438 206.203125 188.144531 L 206.203125 176.382812 C 206.203125 173.894531 203.851562 171.945312 200.851562 171.945312 C 197.851562 171.945312 195.503906 173.894531 195.503906 176.382812 L 195.503906 185.421875 L 186.929688 185.421875 C 182.542969 185.421875 178.601562 187.316406 175.847656 190.316406 L 175.847656 179.535156 C 175.847656 174.292969 171.441406 170.023438 166.023438 170.023438 L 93.035156 170.023438 C 90.835938 170.023438 88.824219 170.75 87.1875 171.9375 L 87.1875 142.890625 C 87.1875 109.5 114.4375 82.335938 147.929688 82.335938 C 181.421875 82.335938 208.671875 109.5 208.671875 142.890625 Z M 208.671875 236.851562 C 208.671875 242.3125 204.6875 246.847656 199.46875 247.738281 L 199.480469 189.566406 C 200.730469 189.78125 201.910156 190.203125 202.980469 190.800781 C 203.144531 190.929688 203.316406 191.046875 203.515625 191.121094 C 206.613281 193.089844 208.675781 196.535156 208.675781 200.460938 L 208.675781 236.851562 Z M 191.527344 247.90625 L 191.527344 189.394531 L 195.503906 189.394531 L 195.492188 247.90625 Z M 175.847656 236.839844 L 175.847656 200.460938 C 175.847656 194.359375 180.820312 189.394531 186.929688 189.394531 L 187.550781 189.394531 L 187.550781 247.90625 L 186.929688 247.90625 C 180.820312 247.90625 175.847656 242.941406 175.847656 236.839844 Z M 166.3125 245.160156 L 92.742188 245.160156 C 89.679688 245.160156 87.1875 242.703125 87.1875 239.683594 L 87.1875 231.121094 L 171.871094 231.121094 L 171.871094 239.683594 C 171.871094 242.703125 169.378906 245.160156 166.3125 245.160156 Z M 92.742188 207.804688 L 166.3125 207.804688 C 169.378906 207.804688 171.871094 210.257812 171.871094 213.277344 L 171.871094 220.113281 L 87.1875 220.113281 L 87.1875 213.277344 C 87.1875 210.261719 89.679688 207.804688 92.742188 207.804688 Z M 171.871094 224.082031 L 171.871094 227.152344 L 87.1875 227.152344 L 87.1875 224.082031 Z M 171.871094 183.796875 L 159.167969 183.796875 L 159.167969 179.519531 C 159.167969 178.425781 158.277344 177.535156 157.179688 177.535156 L 149.828125 177.535156 C 148.730469 177.535156 147.839844 178.425781 147.839844 179.519531 L 147.839844 183.796875 L 111.339844 183.796875 L 111.339844 179.519531 C 111.339844 178.425781 110.449219 177.535156 109.351562 177.535156 L 101.644531 177.535156 C 100.546875 177.535156 99.65625 178.425781 99.65625 179.519531 L 99.65625 183.796875 L 87.1875 183.796875 L 87.1875 179.535156 C 87.1875 176.480469 89.8125 173.992188 93.035156 173.992188 L 166.023438 173.992188 C 169.246094 173.992188 171.871094 176.476562 171.871094 179.535156 Z M 151.816406 181.507812 L 155.191406 181.507812 L 155.191406 190.058594 L 151.816406 190.058594 Z M 103.628906 181.507812 L 107.363281 181.507812 L 107.363281 190.058594 L 103.628906 190.058594 Z M 99.65625 187.765625 L 99.65625 192.042969 C 99.65625 193.140625 100.546875 194.027344 101.644531 194.027344 L 109.351562 194.027344 C 110.449219 194.027344 111.339844 193.140625 111.339844 192.042969 L 111.339844 187.765625 L 147.839844 187.765625 L 147.839844 192.042969 C 147.839844 193.140625 148.730469 194.027344 149.828125 194.027344 L 157.179688 194.027344 C 158.277344 194.027344 159.167969 193.140625 159.167969 192.042969 L 159.167969 187.765625 L 171.871094 187.765625 L 171.871094 205.640625 C 170.304688 204.515625 168.394531 203.835938 166.316406 203.835938 L 92.742188 203.835938 C 90.664062 203.835938 88.753906 204.515625 87.1875 205.640625 L 87.1875 187.769531 L 99.65625 187.769531 Z M 199.472656 176.433594 C 199.535156 176.28125 200.027344 175.917969 200.851562 175.917969 C 201.679688 175.917969 202.167969 176.28125 202.226562 176.382812 L 202.226562 186.160156 C 201.34375 185.875 200.421875 185.675781 199.476562 185.554688 Z M 87.1875 247.324219 C 88.226562 248.066406 89.40625 248.613281 90.699219 248.898438 L 90.699219 251.363281 C 90.699219 252.453125 90.972656 253.476562 91.421875 254.394531 L 87.1875 254.394531 Z M 94.675781 251.363281 L 94.675781 249.128906 L 103.347656 249.128906 L 103.347656 251.363281 C 103.347656 253.039062 101.984375 254.398438 100.3125 254.398438 L 97.714844 254.398438 C 96.039062 254.398438 94.675781 253.035156 94.675781 251.363281 Z M 107.324219 251.363281 L 107.324219 249.128906 L 151.699219 249.128906 L 151.699219 251.363281 C 151.699219 252.457031 151.972656 253.476562 152.421875 254.398438 L 106.601562 254.398438 C 107.050781 253.476562 107.324219 252.453125 107.324219 251.363281 Z M 155.675781 251.363281 L 155.675781 249.128906 L 164.347656 249.128906 L 164.347656 251.363281 C 164.347656 253.039062 162.984375 254.398438 161.3125 254.398438 L 158.71875 254.398438 C 157.039062 254.398438 155.675781 253.035156 155.675781 251.363281 Z M 212.648438 236.851562 L 212.648438 180.671875 C 213.875 181.460938 215.332031 181.933594 216.898438 181.933594 L 220.292969 181.933594 L 220.292969 254.398438 L 212.652344 254.398438 L 212.652344 236.851562 Z M 220.777344 170.230469 L 220.777344 177.964844 L 216.898438 177.964844 C 214.753906 177.964844 213.015625 176.230469 213.015625 174.097656 C 213.015625 171.96875 214.753906 170.234375 216.898438 170.234375 L 220.777344 170.234375 Z M 75.570312 143.015625 C 75.570312 103.171875 108.03125 70.757812 147.929688 70.757812 C 187.828125 70.757812 220.289062 103.171875 220.289062 143.015625 L 220.289062 166.261719 L 216.898438 166.261719 C 215.328125 166.261719 213.875 166.734375 212.648438 167.523438 L 212.648438 142.890625 C 212.648438 107.3125 183.613281 78.367188 147.925781 78.367188 C 112.242188 78.367188 83.210938 107.3125 83.210938 142.890625 L 83.210938 254.398438 L 75.570312 254.398438 Z M 94.828125 279.546875 C 94.828125 284.835938 90.507812 289.140625 85.199219 289.140625 C 79.890625 289.140625 75.570312 284.835938 75.570312 279.546875 C 75.570312 274.253906 79.890625 269.949219 85.199219 269.949219 C 90.507812 269.949219 94.828125 274.253906 94.828125 279.546875 Z M 220.289062 279.546875 C 220.289062 284.835938 215.96875 289.140625 210.660156 289.140625 C 205.355469 289.140625 201.035156 284.835938 201.035156 279.546875 C 201.035156 274.253906 205.355469 269.949219 210.660156 269.949219 C 215.96875 269.949219 220.289062 274.253906 220.289062 279.546875 Z M 229.585938 265.980469 L 66.277344 265.980469 L 66.277344 258.367188 L 229.585938 258.367188 Z M 233.5625 267.042969 L 233.5625 256.382812 C 233.5625 255.285156 232.671875 254.398438 231.574219 254.398438 L 224.265625 254.398438 L 224.265625 181.949219 C 231.519531 181.9375 238.503906 180.574219 245.046875 177.882812 C 247.574219 176.847656 249.90625 175.652344 252.082031 174.351562 L 252.082031 191.21875 C 249.53125 196.84375 247.574219 202.75 246.257812 208.785156 C 244.976562 214.671875 244.304688 220.714844 244.257812 226.761719 L 244.257812 262.03125 C 241.167969 262.488281 239 263.628906 237.492188 264.4375 C 236.976562 264.710938 236.496094 264.96875 236.207031 265.0625 C 235.105469 265.429688 234.203125 266.148438 233.5625 267.042969 Z M 255.949219 271.585938 L 238.191406 271.585938 C 237.375 271.585938 236.640625 271.085938 236.519531 270.445312 C 236.390625 269.738281 236.789062 269.054688 237.46875 268.832031 C 238.074219 268.628906 238.675781 268.308594 239.371094 267.9375 C 240.890625 267.125 242.972656 266.042969 246.019531 265.84375 C 248.539062 266.773438 251.164062 267.421875 253.835938 267.742188 C 255.210938 267.910156 256.597656 267.992188 257.984375 267.992188 C 258.617188 267.992188 259.25 267.96875 259.882812 267.933594 C 259.730469 269.972656 258.035156 271.585938 255.949219 271.585938 Z M 259.929688 242.09375 C 259.917969 242.179688 259.910156 242.28125 259.910156 242.371094 L 259.910156 263.90625 C 258.042969 264.023438 256.164062 264.023438 254.3125 263.800781 C 252.242188 263.550781 250.207031 263.09375 248.234375 262.429688 L 248.234375 226.777344 C 248.277344 221.019531 248.921875 215.25 250.144531 209.628906 C 251.375 203.988281 253.207031 198.476562 255.566406 193.214844 L 263.953125 190.074219 C 266.601562 189.078125 269.460938 188.898438 272.21875 189.550781 L 279.382812 191.246094 C 279.175781 194.496094 278.597656 197.703125 277.613281 200.800781 C 276.347656 204.789062 274.464844 208.539062 272.035156 211.9375 C 269.722656 215.101562 267.6875 218.484375 265.984375 221.988281 C 265.367188 223.261719 264.820312 224.5625 264.285156 225.867188 C 264.246094 225.933594 264.226562 226.003906 264.195312 226.074219 C 262.125 231.191406 260.679688 236.550781 259.929688 242.09375 Z M 268.324219 226.539062 C 268.726562 225.597656 269.109375 224.648438 269.554688 223.726562 C 271.15625 220.433594 273.070312 217.253906 275.253906 214.261719 C 276.820312 212.074219 278.148438 209.746094 279.285156 207.328125 C 279.738281 209.742188 280.316406 212.136719 281.035156 214.472656 C 283.097656 221.171875 286.222656 227.503906 290.371094 233.355469 C 290.414062 233.410156 290.457031 233.46875 290.503906 233.519531 L 305.210938 249.289062 C 303.925781 250.640625 302.554688 251.914062 301.042969 253.007812 C 299.359375 254.226562 297.550781 255.273438 295.652344 256.128906 L 271.300781 230.011719 C 270.273438 228.898438 269.292969 227.71875 268.324219 226.539062 Z M 307.5625 257.601562 L 294.554688 269.652344 C 293.953125 270.207031 293.074219 270.339844 292.546875 269.949219 C 291.964844 269.519531 291.789062 268.753906 292.132812 268.125 C 292.441406 267.566406 292.660156 266.925781 292.914062 266.179688 C 293.472656 264.558594 294.242188 262.355469 296.324219 260.148438 C 298.820312 259.113281 301.191406 257.800781 303.375 256.222656 C 305.015625 255.035156 306.5 253.660156 307.902344 252.207031 C 308.523438 252.953125 308.855469 253.878906 308.820312 254.851562 C 308.78125 255.910156 308.335938 256.886719 307.5625 257.601562 Z M 307.5625 257.601562 " fill-opacity="1" fill-rule="nonzero"/></g></svg>