<svg xmlns="http://www.w3.org/2000/svg" xmlns:xlink="http://www.w3.org/1999/xlink" width="500" zoomAndPan="magnify" viewBox="0 0 375 374.999991" height="500" preserveAspectRatio="xMidYMid meet" version="1.0"><defs><clipPath id="f20d83ae74"><path d="M 36.007812 36.007812 L 339 36.007812 L 339 339 L 36.007812 339 Z M 36.007812 36.007812 " clip-rule="nonzero"/></clipPath></defs><rect x="-37.5" width="450" fill="#ffffff" y="-37.499999" height="449.999989" fill-opacity="1"/><rect x="-37.5" width="450" fill="#1100ff" y="-37.499999" height="449.999989" fill-opacity="1"/><g clip-path="url(#f20d83ae74)"><path fill="#6d80be" d="M 338.9375 187.457031 C 338.9375 189.933594 338.875 192.410156 338.753906 194.886719 C 338.632812 197.363281 338.449219 199.835938 338.207031 202.304688 C 337.964844 204.769531 337.660156 207.230469 337.296875 209.683594 C 336.933594 212.132812 336.507812 214.574219 336.023438 217.007812 C 335.542969 219.4375 335 221.855469 334.394531 224.261719 C 333.792969 226.667969 333.132812 229.054688 332.414062 231.425781 C 331.695312 233.800781 330.917969 236.152344 330.082031 238.488281 C 329.246094 240.820312 328.355469 243.132812 327.40625 245.425781 C 326.457031 247.714844 325.453125 249.980469 324.390625 252.222656 C 323.332031 254.460938 322.21875 256.675781 321.050781 258.863281 C 319.878906 261.050781 318.660156 263.207031 317.382812 265.332031 C 316.109375 267.457031 314.785156 269.550781 313.40625 271.613281 C 312.03125 273.675781 310.601562 275.699219 309.125 277.691406 C 307.648438 279.683594 306.125 281.636719 304.550781 283.554688 C 302.980469 285.46875 301.359375 287.347656 299.695312 289.183594 C 298.03125 291.019531 296.320312 292.816406 294.566406 294.566406 C 292.816406 296.320312 291.019531 298.03125 289.183594 299.695312 C 287.347656 301.359375 285.46875 302.980469 283.554688 304.550781 C 281.636719 306.125 279.683594 307.648438 277.691406 309.125 C 275.699219 310.601562 273.675781 312.03125 271.613281 313.40625 C 269.550781 314.785156 267.457031 316.109375 265.332031 317.382812 C 263.207031 318.660156 261.050781 319.878906 258.863281 321.050781 C 256.675781 322.21875 254.460938 323.332031 252.222656 324.390625 C 249.980469 325.453125 247.714844 326.457031 245.425781 327.40625 C 243.132812 328.355469 240.820312 329.246094 238.488281 330.082031 C 236.152344 330.917969 233.800781 331.695312 231.425781 332.414062 C 229.054688 333.132812 226.667969 333.792969 224.261719 334.394531 C 221.855469 335 219.4375 335.542969 217.007812 336.023438 C 214.574219 336.507812 212.132812 336.933594 209.683594 337.296875 C 207.230469 337.660156 204.769531 337.964844 202.304688 338.207031 C 199.835938 338.449219 197.363281 338.632812 194.886719 338.753906 C 192.410156 338.875 189.933594 338.9375 187.457031 338.9375 C 184.976562 338.9375 182.5 338.875 180.023438 338.753906 C 177.546875 338.632812 175.074219 338.449219 172.605469 338.207031 C 170.140625 337.964844 167.679688 337.660156 165.226562 337.296875 C 162.777344 336.933594 160.335938 336.507812 157.902344 336.023438 C 155.472656 335.542969 153.054688 335 150.648438 334.394531 C 148.242188 333.792969 145.855469 333.132812 143.484375 332.414062 C 141.109375 331.695312 138.757812 330.917969 136.421875 330.082031 C 134.089844 329.246094 131.777344 328.355469 129.484375 327.40625 C 127.195312 326.457031 124.929688 325.453125 122.6875 324.390625 C 120.449219 323.332031 118.234375 322.21875 116.046875 321.050781 C 113.859375 319.878906 111.703125 318.660156 109.578125 317.382812 C 107.453125 316.109375 105.359375 314.785156 103.296875 313.40625 C 101.234375 312.03125 99.210938 310.601562 97.21875 309.125 C 95.226562 307.648438 93.273438 306.125 91.355469 304.550781 C 89.441406 302.980469 87.5625 301.359375 85.726562 299.695312 C 83.890625 298.03125 82.09375 296.320312 80.34375 294.566406 C 78.589844 292.816406 76.878906 291.019531 75.214844 289.183594 C 73.550781 287.347656 71.929688 285.46875 70.359375 283.554688 C 68.785156 281.636719 67.261719 279.683594 65.785156 277.691406 C 64.308594 275.699219 62.878906 273.675781 61.503906 271.613281 C 60.125 269.550781 58.800781 267.457031 57.527344 265.332031 C 56.25 263.207031 55.03125 261.050781 53.859375 258.863281 C 52.691406 256.675781 51.578125 254.460938 50.519531 252.222656 C 49.457031 249.980469 48.453125 247.714844 47.503906 245.425781 C 46.554688 243.132812 45.664062 240.820312 44.828125 238.488281 C 43.992188 236.152344 43.214844 233.800781 42.496094 231.425781 C 41.777344 229.054688 41.117188 226.667969 40.515625 224.261719 C 39.910156 221.855469 39.367188 219.4375 38.886719 217.007812 C 38.402344 214.574219 37.976562 212.132812 37.613281 209.683594 C 37.25 207.230469 36.945312 204.769531 36.703125 202.304688 C 36.460938 199.835938 36.277344 197.363281 36.15625 194.886719 C 36.035156 192.410156 35.972656 189.933594 35.972656 187.457031 C 35.972656 184.976562 36.035156 182.5 36.15625 180.023438 C 36.277344 177.546875 36.460938 175.074219 36.703125 172.605469 C 36.945312 170.140625 37.25 167.679688 37.613281 165.226562 C 37.976562 162.777344 38.402344 160.335938 38.886719 157.902344 C 39.367188 155.472656 39.910156 153.054688 40.515625 150.648438 C 41.117188 148.242188 41.777344 145.855469 42.496094 143.484375 C 43.214844 141.109375 43.992188 138.757812 44.828125 136.421875 C 45.664062 134.089844 46.554688 131.777344 47.503906 129.484375 C 48.453125 127.195312 49.457031 124.929688 50.519531 122.6875 C 51.578125 120.449219 52.691406 118.234375 53.859375 116.046875 C 55.03125 113.859375 56.25 111.703125 57.527344 109.578125 C 58.800781 107.453125 60.125 105.359375 61.503906 103.296875 C 62.878906 101.234375 64.308594 99.210938 65.785156 97.21875 C 67.261719 95.226562 68.785156 93.273438 70.359375 91.355469 C 71.929688 89.441406 73.550781 87.5625 75.214844 85.726562 C 76.878906 83.890625 78.589844 82.09375 80.34375 80.34375 C 82.09375 78.589844 83.890625 76.878906 85.726562 75.214844 C 87.5625 73.550781 89.441406 71.929688 91.355469 70.359375 C 93.273438 68.785156 95.226562 67.261719 97.21875 65.785156 C 99.210938 64.308594 101.234375 62.878906 103.296875 61.503906 C 105.359375 60.125 107.453125 58.800781 109.578125 57.527344 C 111.703125 56.25 113.859375 55.03125 116.046875 53.859375 C 118.234375 52.691406 120.449219 51.578125 122.6875 50.519531 C 124.929688 49.457031 127.195312 48.453125 129.484375 47.503906 C 131.777344 46.554688 134.089844 45.664062 136.421875 44.828125 C 138.757812 43.992188 141.109375 43.214844 143.484375 42.496094 C 145.855469 41.777344 148.242188 41.117188 150.648438 40.515625 C 153.054688 39.910156 155.472656 39.367188 157.902344 38.886719 C 160.335938 38.402344 162.777344 37.976562 165.226562 37.613281 C 167.679688 37.25 170.140625 36.945312 172.605469 36.703125 C 175.074219 36.460938 177.546875 36.277344 180.023438 36.15625 C 182.5 36.035156 184.976562 35.972656 187.457031 35.972656 C 189.933594 35.972656 192.410156 36.035156 194.886719 36.15625 C 197.363281 36.277344 199.835938 36.460938 202.304688 36.703125 C 204.769531 36.945312 207.230469 37.25 209.683594 37.613281 C 212.132812 37.976562 214.574219 38.402344 217.007812 38.886719 C 219.4375 39.367188 221.855469 39.910156 224.261719 40.515625 C 226.667969 41.117188 229.054688 41.777344 231.425781 42.496094 C 233.800781 43.214844 236.152344 43.992188 238.488281 44.828125 C 240.820312 45.664062 243.132812 46.554688 245.425781 47.503906 C 247.714844 48.453125 249.980469 49.457031 252.222656 50.519531 C 254.460938 51.578125 256.675781 52.691406 258.863281 53.859375 C 261.050781 55.03125 263.207031 56.25 265.332031 57.527344 C 267.457031 58.800781 269.550781 60.125 271.613281 61.503906 C 273.675781 62.878906 275.699219 64.308594 277.691406 65.785156 C 279.683594 67.261719 281.636719 68.785156 283.554688 70.359375 C 285.46875 71.929688 287.347656 73.550781 289.183594 75.214844 C 291.019531 76.878906 292.816406 78.589844 294.566406 80.34375 C 296.320312 82.09375 298.03125 83.890625 299.695312 85.726562 C 301.359375 87.5625 302.980469 89.441406 304.550781 91.355469 C 306.125 93.273438 307.648438 95.226562 309.125 97.21875 C 310.601562 99.210938 312.03125 101.234375 313.40625 103.296875 C 314.785156 105.359375 316.109375 107.453125 317.382812 109.578125 C 318.660156 111.703125 319.878906 113.859375 321.050781 116.046875 C 322.21875 118.234375 323.332031 120.449219 324.390625 122.6875 C 325.453125 124.929688 326.457031 127.195312 327.40625 129.484375 C 328.355469 131.777344 329.246094 134.089844 330.082031 136.421875 C 330.917969 138.757812 331.695312 141.109375 332.414062 143.484375 C 333.132812 145.855469 333.792969 148.242188 334.394531 150.648438 C 335 153.054688 335.542969 155.472656 336.023438 157.902344 C 336.507812 160.335938 336.933594 162.777344 337.296875 165.226562 C 337.660156 167.679688 337.964844 170.140625 338.207031 172.605469 C 338.449219 175.074219 338.632812 177.546875 338.753906 180.023438 C 338.875 182.5 338.9375 184.976562 338.9375 187.457031 Z M 338.9375 187.457031 " fill-opacity="1" fill-rule="nonzero"/></g><path fill="#ffd944" d="M 191.296875 144.273438 L 191.296875 174.242188 L 183.613281 174.242188 L 183.613281 144.277344 C 175.332031 142.507812 169.117188 135.160156 169.117188 126.351562 C 169.117188 116.226562 177.328125 108.015625 187.453125 108.015625 C 197.578125 108.015625 205.789062 116.226562 205.789062 126.351562 C 205.789062 135.15625 199.574219 142.507812 191.296875 144.273438 Z M 191.296875 144.273438 " fill-opacity="1" fill-rule="nonzero"/><path fill="#ffd944" d="M 255.953125 245.25 C 259.378906 224.921875 259.304688 203.902344 249.265625 184.769531 C 238.730469 163.992188 215.832031 145.554688 187.457031 146.050781 C 159.078125 145.554688 136.175781 163.992188 125.644531 184.769531 C 115.605469 203.902344 115.527344 224.921875 118.957031 245.25 Z M 255.953125 245.25 " fill-opacity="1" fill-rule="nonzero"/><path fill="#f59f40" d="M 234.984375 192.265625 L 234.878906 192.0625 C 227.890625 178.273438 211.566406 162.171875 188.578125 162.171875 C 188.480469 162.171875 188.324219 162.171875 188.15625 162.175781 L 188.15625 229.121094 L 241.652344 229.121094 C 242.589844 214.511719 240.402344 202.589844 234.984375 192.265625 Z M 234.984375 192.265625 " fill-opacity="1" fill-rule="nonzero"/><path fill="#f59f40" d="M 280.785156 253.054688 C 280.785156 259.023438 275.945312 263.867188 269.972656 263.867188 L 104.9375 263.867188 C 98.96875 263.867188 94.125 259.023438 94.125 253.054688 C 94.125 247.082031 98.96875 242.242188 104.9375 242.242188 L 269.972656 242.242188 C 275.945312 242.242188 280.785156 247.082031 280.785156 253.054688 Z M 280.785156 253.054688 " fill-opacity="1" fill-rule="nonzero"/><path fill="#ffd944" d="M 280.785156 274.675781 C 280.785156 280.648438 275.945312 285.488281 269.972656 285.488281 L 104.9375 285.488281 C 98.96875 285.488281 94.125 280.648438 94.125 274.675781 C 94.125 268.703125 98.96875 263.867188 104.9375 263.867188 L 269.972656 263.867188 C 275.945312 263.867188 280.785156 268.703125 280.785156 274.675781 Z M 280.785156 274.675781 " fill-opacity="1" fill-rule="nonzero"/><path fill="#ffffff" d="M 242.074219 82.738281 C 239.453125 80.117188 235.199219 80.117188 232.578125 82.738281 L 213.738281 101.472656 C 211.117188 104.09375 211.117188 108.34375 213.738281 110.96875 C 216.359375 113.589844 220.613281 113.589844 223.234375 110.964844 L 242.074219 92.230469 C 244.695312 89.609375 244.695312 85.359375 242.074219 82.738281 Z M 242.074219 82.738281 " fill-opacity="1" fill-rule="nonzero"/><path fill="#ffffff" d="M 132.835938 82.738281 C 135.457031 80.117188 139.710938 80.117188 142.332031 82.738281 L 161.171875 101.472656 C 163.792969 104.09375 163.792969 108.34375 161.171875 110.96875 C 158.546875 113.589844 154.296875 113.589844 151.675781 110.964844 L 132.835938 92.230469 C 130.214844 89.609375 130.214844 85.359375 132.835938 82.738281 Z M 132.835938 82.738281 " fill-opacity="1" fill-rule="nonzero"/><path fill="#ffffff" d="M 194.09375 91.074219 C 194.09375 94.742188 191.121094 97.714844 187.457031 97.714844 C 183.789062 97.714844 180.816406 94.742188 180.816406 91.074219 L 180.816406 65.410156 C 180.816406 61.742188 183.789062 58.769531 187.457031 58.769531 C 191.121094 58.769531 194.09375 61.742188 194.09375 65.410156 Z M 194.09375 91.074219 " fill-opacity="1" fill-rule="nonzero"/></svg>